<svg width="24" height="24" viewBox="0 0 24 24" fill="none" xmlns="http://www.w3.org/2000/svg">
<path d="M17.625 3.5C17.8273 3.5 18.0225 3.53775 18.2139 3.61426C18.3936 3.68616 18.5486 3.79242 18.6816 3.9375L18.6875 3.94434L18.6934 3.9502L20.0684 5.35059L20.0771 5.35938L20.0869 5.36816C20.2291 5.49853 20.329 5.6488 20.3926 5.82227C20.4654 6.02074 20.5 6.21284 20.5 6.40039C20.5 6.60828 20.464 6.80225 20.3945 6.98535C20.3302 7.15474 20.2259 7.31703 20.0713 7.47168L7.04297 20.5H3.5V16.957L16.5381 3.94336C16.6966 3.79813 16.8681 3.6891 17.0537 3.6123C17.2336 3.53789 17.4226 3.5 17.625 3.5ZM4.5 17.3682V19.5H6.63184L16.9131 9.21875L16.5527 8.87109H16.5537L15.1279 7.44629L14.7812 7.08691L4.5 17.3682ZM17.2461 5.35352L18.6465 6.75391L19.3535 6.04688L17.9531 4.64648L17.2461 5.35352Z" stroke="#FF6467"/>
</svg>
